<?xml version="1.0" standalone="no"?>
<!DOCTYPE svg PUBLIC "-//W3C//DTD SVG 20010904//EN"
 "http://www.w3.org/TR/2001/REC-SVG-20010904/DTD/svg10.dtd">
<svg version="1.0" xmlns="http://www.w3.org/2000/svg"
 width="256.000000pt" height="256.000000pt" viewBox="0 0 256.000000 256.000000"
 preserveAspectRatio="xMidYMid meet">
<metadata>
Created by potrace 1.14, written by Peter Selinger 2001-2017
</metadata>
<g transform="translate(0.000000,256.000000) scale(0.100000,-0.100000)"
fill="#000000" stroke="none">
<path d="M1210 2550 c-11 -7 -15 -34 -16 -122 -1 -62 -2 -115 -3 -119 -1 -3
-45 -5 -98 -4 -130 2 -153 -6 -154 -53 0 -21 -1 -55 -2 -77 l-2 -40 -99 -2
c-55 -1 -110 -4 -123 -8 -36 -9 -91 -63 -104 -102 -13 -39 -18 -687 -6 -753 4
-19 27 -102 53 -185 25 -82 55 -181 66 -220 11 -38 38 -128 60 -200 23 -71 43
-141 45 -155 7 -40 36 -71 74 -79 36 -7 36 -6 38 -101 2 -73 4 -74 138 -74
l119 -1 -1 -114 c-2 -136 2 -141 85 -141 79 0 91 13 89 98 0 37 -1 88 0 113
l1 45 110 -2 c70 -1 115 3 125 10 12 8 16 30 17 83 l1 71 37 11 c21 6 42 17
48 24 9 11 79 230 127 397 7 25 34 117 60 205 26 88 52 178 57 200 13 52 17
698 5 750 -11 48 -69 109 -117 122 -19 5 -76 9 -125 8 l-91 -2 -1 76 c-2 56
-6 79 -18 87 -10 8 -55 11 -125 10 -105 -3 -110 -2 -111 18 0 12 0 60 0 108 2
119 -4 128 -82 128 -34 0 -69 -5 -77 -10z"/>
</g>
</svg>
